<?xml version="1.0" encoding="UTF-8"?>
<svg width="208px" height="86px" viewBox="0 0 208 86" version="1.1" xmlns="http://www.w3.org/2000/svg" xmlns:xlink="http://www.w3.org/1999/xlink">
    <!-- Generator: Sketch 41.2 (35397) - http://www.bohemiancoding.com/sketch -->
    <title>Logo VC+</title>
    <desc>Created with Sketch.</desc>
    <defs></defs>
    <g id="Layouts" stroke="none" stroke-width="1" fill="none" fill-rule="evenodd">
        <g id="Login-Vtex" transform="translate(-612.000000, -80.000000)">
            <g id="Logo-VC+" transform="translate(612.000000, 80.000000)">
                <g>
                    <g id="+" transform="translate(127.095356, 3.583333)">
                        <polygon id="Shape" fill="#00CDF0" points="49.7005716 22.225625 80.5389348 22.225625 80.5389348 55.9949583 63.6226777 55.9949583 63.6226777 48.6791354 72.754232 48.6791354 72.754232 28.9708021 49.7005716 28.9708021"></polygon>
                        <polygon id="Shape" fill="#A4CD39" points="56.7496483 48.2554063 56.7496483 79.0120521 22.8910862 79.0120521 22.8910862 62.1408229 30.2262397 62.1408229 30.2262397 71.2483125 49.9866484 71.2483125 49.9866484 48.2554063"></polygon>
                        <polygon id="Shape" fill="#EE4250" points="17.8144575 28.9708021 8.38335339 28.9708021 8.38335339 48.6791354 31.4370138 48.6791354 31.4370138 55.9949583 0.299549832 55.9949583 0.299549832 22.1028958 17.8144575 22.1028958"></polygon>
                        <polygon id="Shape" fill="#FF9338" points="22.3054595 0.154979167 22.3054595 30.8556354 29.5472002 30.8556354 29.5472002 7.56396875 49.9812592 7.56396875 49.9812592 17.4181354 57.3352749 17.4181354 57.3352749 0.154979167"></polygon>
                    </g>
                    <g id="VC">
                        <path d="M67.3113458,44.7547527 C67.3143781,44.7472698 67.3174109,44.7397855 67.3204444,44.7322996 L60.9204418,60.6573229 C62.7936387,65.6856354 65.4280605,70.0541667 68.8358328,73.7499271 C72.3518382,77.5639375 76.6362541,80.5528854 81.6895295,82.7176667 C86.7419068,84.8833437 92.4585032,85.9659583 98.8375224,85.9659583 C105.791839,85.9659583 111.815171,84.8448229 116.907069,82.6025521 C121.998518,80.3607292 126.23488,77.0362917 129.616604,72.6287917 L121.892979,64.5228437 C121.469478,64.10225 121.028012,63.8048333 120.567235,63.6323854 C120.10601,63.4599375 119.644784,63.3734896 119.183558,63.3734896 C118.607362,63.3734896 118.050029,63.4984583 117.512007,63.7470521 C116.973536,63.9965417 116.474136,64.3127708 116.013359,64.6957396 C114.860968,65.6928021 113.71711,66.526375 112.583581,67.1964583 C111.450052,67.8674375 110.25814,68.4134479 109.010091,68.8349375 C107.760694,69.256875 106.406208,69.5533958 104.946632,69.7258437 C103.485709,69.8982917 101.871643,69.9847396 100.104883,69.9847396 C97.0303432,69.9847396 94.1484672,69.3908021 91.4592552,68.2024792 C88.7691451,67.0150521 86.41586,65.2807187 84.3985019,62.9999271 C82.3811439,60.7200312 80.7863891,57.9124896 79.6146866,54.57775 C78.442086,51.2434583 77.8564594,47.4303437 77.8564594,43.1379583 C77.8564594,39.0372812 78.442086,35.3392812 79.6146866,32.0426146 C80.7863891,28.7468437 82.4193174,25.93975 84.5139207,23.6208854 C86.6080749,21.3024687 89.1154013,19.5202083 92.0358999,18.2745521 C94.9555003,17.0293437 98.1831834,16.4062917 101.719398,16.4062917 C103.755619,16.4062917 105.532708,16.5599271 107.051116,16.8663021 C108.568625,17.1735729 109.89392,17.5471354 111.027898,17.9874375 C112.160529,18.4281875 113.140465,18.9070104 113.967259,19.4243542 C114.793603,19.9416979 115.552583,20.4214167 116.244197,20.8612708 C116.935811,21.3020208 117.588803,21.6760312 118.203621,21.9819583 C118.81799,22.2892292 119.471431,22.4419687 120.163494,22.4419687 C121.200916,22.4419687 122.0075,22.2220417 122.584144,21.7808437 C123.160789,21.3409896 123.659739,20.8523125 124.082792,20.3152604 L130.654026,11.5195208 C129.077684,9.87208333 127.272301,8.36753125 125.236081,7.00676042 C123.198963,5.64688542 120.970977,4.477375 118.549877,3.50002083 C116.128778,2.52266667 113.525344,1.75628125 110.739576,1.20041667 C107.952909,0.645447917 104.984806,0.36684375 101.834368,0.36684375 C95.3399301,0.36684375 89.4032745,1.42123958 84.0239524,3.5286875 C84.0002598,3.53806741 83.9770042,3.54795582 83.9538336,3.55794317 L84.9598772,0.839395833 L69.1668196,0.839395833 C67.5527535,0.839395833 66.1883871,1.27029167 65.0746186,2.13297917 C63.9595028,2.99521875 63.2104037,3.96361458 62.8268721,5.03592708 L46.6875583,49.8759687 C45.995944,51.8302292 45.2944495,53.9573854 44.5835239,56.2569896 C43.8721492,58.5565937 43.2478999,60.9708646 42.710327,63.50025 C42.0564371,60.9708646 41.3558408,58.5561458 40.6062926,56.2569896 C39.8571934,53.9573854 39.1166272,51.8302292 38.3872885,49.8759687 L22.1334541,5.03592708 C21.6722282,3.77101042 20.9033687,2.75603125 19.8277737,1.98919792 C18.7517297,1.22326042 17.3680519,0.839395833 15.6776388,0.839395833 L0,0.839395833 L33.6614071,84.5984687 L51.2989192,84.5984687 L60.9204418,60.6573229 L67.3113458,44.7547527 Z" id="Combined-Shape" fill="#E7E4E6"></path>
                        <path d="M61.14095,25.9204896 C58.9884128,31.1517083 57.9132669,36.8917604 57.9132669,43.1379583 C57.9132669,49.2699375 58.8541318,54.9517604 60.737658,60.1829792 C60.795592,60.3437812 60.8611606,60.4978646 60.9204418,60.6573229 L83.8497015,3.60214583 C78.5453791,5.7055625 73.9811738,8.63001042 70.1615766,12.3822083 C66.299764,16.1765104 63.2925891,20.6888229 61.14095,25.9204896 Z" id="Shape" fill="#D1CED1"></path>
                    </g>
                </g>
            </g>
        </g>
    </g>
</svg>